<svg width="500" height="500" viewBox="0 0 500 500" fill="none" xmlns="http://www.w3.org/2000/svg">
<g clip-path="url(#clip0_9_146)">
<rect width="500" height="500" fill="#324148"/>
<path d="M5.81453 255.101C105.315 249.101 100.815 253.601 105.315 300.101H88.8145C87.3145 265.601 91.3145 266.601 4.81452 269.101C0.314523 268.101 -1.18546 258.101 5.81453 255.101Z" fill="white"/>
<path d="M120.315 399.5C82.9869 399.624 67.6948 377.78 60.3145 340.5C40.8145 242 120.315 295.5 120.315 295.5L120.315 399.5Z" fill="white"/>
<path d="M105.129 348H120.315L120.315 355H105.129C103.685 352.266 103.704 350.734 105.129 348Z" fill="#324148"/>
<path d="M147.903 307.335L123.491 324.429C122.286 325.824 122.286 327.754 123.491 329.149C124.548 330.373 127.506 330.163 127.506 330.163L151.919 313.069C152.053 309.693 151.061 308.514 147.903 307.335Z" fill="#324148"/>
<path d="M127.463 323.439L151.922 340.565C151.885 343.606 150.829 344.769 147.907 346.299L123.448 329.173L127.463 323.439Z" fill="#324148"/>
<path d="M80.6679 306.851L105.08 323.945C106.285 325.34 106.285 327.27 105.08 328.665C104.023 329.889 101.065 329.679 101.065 329.679L76.6529 312.585C76.5185 309.209 77.5105 308.03 80.6679 306.851Z" fill="#324148"/>
<path d="M101.109 322.955L76.6497 340.081C76.6868 343.122 77.7426 344.285 80.6648 345.815L105.124 328.689L101.109 322.955Z" fill="#324148"/>
<path d="M233.5 255.101C134 249.101 138.5 253.601 134 300.101H150.5C152 265.601 148 266.601 234.5 269.101C239 268.101 240.5 258.101 233.5 255.101Z" fill="white"/>
<path d="M119 399.5C156.328 399.624 171.62 377.78 179 340.5C198.5 242 119 295.5 119 295.5L119 399.5Z" fill="white"/>
<path d="M134.185 348H119L119 355H134.185C135.629 352.266 135.61 350.734 134.185 348Z" fill="#324148"/>
<path d="M158.647 306.851L134.234 323.945C133.029 325.34 133.029 327.27 134.234 328.665C135.291 329.889 138.249 329.679 138.249 329.679L162.662 312.585C162.796 309.209 161.804 308.03 158.647 306.851Z" fill="#324148"/>
<path d="M138.206 322.955L162.665 340.081C162.628 343.122 161.572 344.285 158.65 345.815L134.191 328.689L138.206 322.955Z" fill="#324148"/>
<path d="M237.5 74.1009C138 68.1009 142.5 72.6009 138 119.101H154.5C156 84.6009 152 85.6009 238.5 88.1009C243 87.1009 244.5 77.1009 237.5 74.1009Z" fill="white"/>
<path d="M123 218.5C160.328 218.624 175.62 196.78 183 159.5C202.5 61 123 114.5 123 114.5L123 218.5Z" fill="white"/>
<path d="M162.647 125.851L138.234 142.945C137.03 144.34 137.03 146.27 138.234 147.665C139.292 148.889 142.249 148.679 142.249 148.679L166.662 131.585C166.796 128.209 165.804 127.03 162.647 125.851Z" fill="#324148"/>
<path d="M142.206 141.955L166.665 159.081C166.628 162.122 165.572 163.285 162.65 164.815L138.191 147.689L142.206 141.955Z" fill="#324148"/>
<path d="M9.81453 74.1009C109.315 68.1009 104.815 72.6009 109.315 119.101H92.8145C91.3145 84.6009 95.3145 85.6009 8.81452 88.1009C4.31452 87.1009 2.81454 77.1009 9.81453 74.1009Z" fill="white"/>
<path d="M124.315 218.5C86.9869 218.624 71.6948 196.78 64.3145 159.5C44.8145 61 124.315 114.5 124.315 114.5L124.315 218.5Z" fill="white"/>
<path d="M84.6679 125.851L109.08 142.945C110.285 144.34 110.285 146.27 109.08 147.665C108.023 148.889 105.065 148.679 105.065 148.679L80.6529 131.585C80.5185 128.209 81.5105 127.03 84.6679 125.851Z" fill="#324148"/>
<path d="M105.109 141.955L80.6497 159.081C80.6868 162.122 81.7426 163.285 84.6648 164.815L109.124 147.689L105.109 141.955Z" fill="#324148"/>
<circle cx="123.5" cy="183.5" r="12.5" fill="#324148"/>
<path d="M495.5 74.1009C396 68.1009 400.5 72.6009 396 119.101H412.5C414 84.6009 410 85.6009 496.5 88.1009C501 87.1009 502.5 77.1009 495.5 74.1009Z" fill="white"/>
<path d="M381 218.5C418.328 218.624 433.62 196.78 441 159.5C460.5 61 381 114.5 381 114.5L381 218.5Z" fill="white"/>
<path d="M420.647 125.851L396.234 142.945C395.029 144.34 395.029 146.27 396.234 147.665C397.291 148.889 400.249 148.679 400.249 148.679L424.662 131.585C424.796 128.209 423.804 127.03 420.647 125.851Z" fill="#324148"/>
<path d="M400.206 141.955L424.665 159.081C424.628 162.122 423.572 163.285 420.65 164.815L396.191 147.689L400.206 141.955Z" fill="#324148"/>
<path d="M270.814 74.1009C370.314 68.1009 365.814 72.6009 370.314 119.101H353.814C352.314 84.6009 356.314 85.6009 269.814 88.1009C265.314 87.1009 263.814 77.1009 270.814 74.1009Z" fill="white"/>
<path d="M385.314 218.5C347.987 218.624 332.695 196.78 325.314 159.5C305.814 61 385.314 114.5 385.314 114.5L385.314 218.5Z" fill="white"/>
<path d="M345.668 125.851L370.08 142.945C371.285 144.34 371.285 146.27 370.08 147.665C369.023 148.889 366.065 148.679 366.065 148.679L341.653 131.585C341.518 128.209 342.51 127.03 345.668 125.851Z" fill="#324148"/>
<path d="M366.109 141.955L341.65 159.081C341.687 162.122 342.743 163.285 345.665 164.815L370.124 147.689L366.109 141.955Z" fill="#324148"/>
<path d="M361.186 184C375.987 193.806 384.656 195.025 401.174 185" stroke="#324148" stroke-width="5"/>
<path d="M495.5 255.101C396 249.101 400.5 253.601 396 300.101H412.5C414 265.601 410 266.601 496.5 269.101C501 268.101 502.5 258.101 495.5 255.101Z" fill="white"/>
<path d="M381 399.5C418.328 399.624 433.62 377.78 441 340.5C460.5 242 381 295.5 381 295.5L381 399.5Z" fill="white"/>
<path d="M420.647 306.851L396.234 323.945C395.029 325.34 395.029 327.27 396.234 328.665C397.291 329.889 400.249 329.679 400.249 329.679L424.662 312.585C424.796 309.209 423.804 308.03 420.647 306.851Z" fill="#324148"/>
<path d="M400.206 322.955L424.665 340.081C424.628 343.122 423.572 344.285 420.65 345.815L396.191 328.689L400.206 322.955Z" fill="#324148"/>
<path d="M270.814 255.101C370.314 249.101 365.814 253.601 370.314 300.101H353.814C352.314 265.601 356.314 266.601 269.814 269.101C265.314 268.101 263.814 258.101 270.814 255.101Z" fill="white"/>
<path d="M385.314 399.5C347.987 399.624 332.695 377.78 325.314 340.5C305.814 242 385.314 295.5 385.314 295.5L385.314 399.5Z" fill="white"/>
<path d="M345.668 306.851L370.08 323.945C371.285 325.34 371.285 327.27 370.08 328.665C369.023 329.889 366.065 329.679 366.065 329.679L341.653 312.585C341.518 309.209 342.51 308.03 345.668 306.851Z" fill="#324148"/>
<path d="M366.109 322.955L341.65 340.081C341.687 343.122 342.743 344.285 345.665 345.815L370.124 328.689L366.109 322.955Z" fill="#324148"/>
<path d="M361.186 372.96C375.987 363.154 384.656 361.935 401.174 371.96" stroke="#324148" stroke-width="5"/>
</g>
<defs>
<clipPath id="clip0_9_146">
<rect width="500" height="500" fill="white"/>
</clipPath>
</defs>
</svg>
